<?xml version="1.0" encoding="UTF-8" standalone="no"?>
<!-- Created with Inkscape (http://www.inkscape.org/) -->

<svg
   xmlns:dc="http://purl.org/dc/elements/1.1/"
   xmlns:cc="http://creativecommons.org/ns#"
   xmlns:rdf="http://www.w3.org/1999/02/22-rdf-syntax-ns#"
   xmlns:svg="http://www.w3.org/2000/svg"
   xmlns="http://www.w3.org/2000/svg"
   xmlns:sodipodi="http://sodipodi.sourceforge.net/DTD/sodipodi-0.dtd"
   xmlns:inkscape="http://www.inkscape.org/namespaces/inkscape"
   id="svg2"
   version="1.1"
   inkscape:version="0.92.1 r15371"
   width="517.7207"
   height="388.18494"
   viewBox="0 0 485.36315 363.92337"
   sodipodi:docname="logo-9d9d9d.svg">
  <title
     id="title4181">GGAP-Logo</title>
  <metadata
     id="metadata8">
    <rdf:RDF>
      <cc:Work
         rdf:about="">
        <dc:format>image/svg+xml</dc:format>
        <dc:type
           rdf:resource="http://purl.org/dc/dcmitype/StillImage" />
        <dc:title>GGAP-Logo</dc:title>
        <dc:creator>
          <cc:Agent>
            <dc:title>Margarete Meinhold</dc:title>
          </cc:Agent>
        </dc:creator>
        <dc:rights>
          <cc:Agent>
            <dc:title>All rights reserved.</dc:title>
          </cc:Agent>
        </dc:rights>
        <dc:description>(c) 2016 Margarete Meinhold, Berlin. Licensed to Gemeinsam gegen Armut auf den Philippinen (GGAP) e.V. &lt;ggap-ev.org&gt;</dc:description>
      </cc:Work>
    </rdf:RDF>
  </metadata>
  <defs
     id="defs6" />
  <sodipodi:namedview
     pagecolor="#ffffff"
     bordercolor="#666666"
     borderopacity="1"
     objecttolerance="10"
     gridtolerance="10"
     guidetolerance="10"
     inkscape:pageopacity="0"
     inkscape:pageshadow="2"
     inkscape:window-width="640"
     inkscape:window-height="480"
     id="namedview4"
     showgrid="false"
     fit-margin-top="0"
     fit-margin-left="0"
     fit-margin-right="0"
     fit-margin-bottom="0"
     inkscape:zoom="0.80126935"
     inkscape:cx="242.55516"
     inkscape:cy="181.21759"
     inkscape:current-layer="svg2" />
  <path
     id="path4146"
     style="fill:#9d9d9d;fill-opacity:1"
     d="M 122.04517,363.47629 C 99.27568,359.65187 95.743855,332.90182 95.30232,313.90156 93.394058,252.66653 84.094537,190.70807 95.54914,129.87278 c 6.24682,-20.3821 42.98765,-22.54318 50.08002,-2.50613 -9.46746,12.18257 -23.72191,-13.23722 -30.97883,8.35384 -7.85717,20.06343 0.13965,41.91236 -3.27654,62.69726 0.2828,41.50918 1.21463,83.12 4.07448,124.49997 -3.53597,14.19042 17.26461,42.46256 16.79698,13.33316 2.661,-36.42418 -1.1446,-73.00329 0.88543,-109.49291 -2.07807,-15.66396 6.37819,-39.43313 -10.18627,-44.7978 13.48952,-16.76273 39.68281,3.3925 29.71417,23.84516 0.33807,46.81557 2.97905,94.21012 -3.76081,140.75212 -3.16687,11.43721 -15.32641,18.47751 -26.8526,16.91884 z m -5.14038,-16.85262 c 0.3544,-2.95693 -2.41349,1.54506 0,0 z m -10.89943,-0.89043 h -0.27893 z m 1.425,-1.725 c -0.43404,-1.02208 -0.43404,1.02208 0,0 z m -2.2925,-2.57749 -0.15876,0.33412 z m 1.64,-0.94751 -0.30497,10e-6 z m 30.5775,-1.5 h -0.43114 z m 1.5,-4.275 c -1.2617,-1.92968 -0.65949,1.70813 0,0 z m -34.65,-2.55 h -0.28743 z m -3.6,-9.18 -0.24014,0.0221 z m 46.05,-3.87 h -0.28743 z m -37.5,-3.15 h -0.43911 z m 27.27683,-5.1672 c -0.66848,-0.81406 -0.21742,1.24477 0,0 z m 11.72317,-1.74165 -0.28146,0.0792 z m 4.35,-14.69115 c -0.5206,-1.1805 -0.5206,1.1805 0,0 z m 0,-5.025 h -0.43114 z m -9.9265,-10.02493 c -0.5645,-0.92896 -0.53823,1.50617 0,0 z m -1.9235,-2.41622 -0.29329,-0.0861 z m 11.11557,-0.42828 -0.15388,0.23904 z m -5.56557,-5.59827 -0.27433,0.16005 z m -3,-3.12345 c -0.35949,-1.15553 -1.23905,1.22504 0,0 z m 3.45,-5.40885 h -0.27893 z m 1.65,-1.95 -0.30649,-0.0222 z m -2.475,-0.675 -0.36042,0.007 z m 3.3,-2.475 c -0.43342,-1.25556 -0.43342,1.25556 0,0 z m -0.31113,-11.97492 c -0.68037,-0.94827 -0.0651,1.58033 0,0 z m -51.96387,-2.86623 -0.29332,-0.0861 z m 0.6,-5.7678 c -0.744579,-1.63239 -0.687794,1.12654 0,0 z m 48.075,-0.61605 -0.20671,-0.005 z m -7.35792,-2.11281 -0.27229,0.16823 z m 1.67355,-0.54657 -0.0835,0.29475 z m 6.80937,0.25938 h -0.28743 z m -55.27965,-8.69247 -0.46298,-0.2145 z m 49.31215,-2.43502 -0.15876,0.33412 z m -43.0825,-1.32251 h -0.43911 z m 48.15,-1.275 h -0.27892 z m -7.35,-1.34115 -0.29328,-0.086 z m 6.85247,-8.96197 -0.0276,0.27095 z m -7.00247,-9.03803 -0.29328,-0.086 z m 0.9,-3 c 0.002,-1.01408 -0.80837,0.78349 0,0 z m 2.175,-6.24429 c -0.45574,-1.04464 -0.57789,1.24149 0,0 z m -33.975,-18.66455 h -0.43114 z m 155.70001,190.31113 c -21.12536,-14.42101 -3.24201,-43.87847 -8.54732,-64.82377 1.25644,-57.52323 -0.4262,-115.09167 -0.61764,-172.58262 1.21638,-27.540904 36.80815,-18.17245 54.05562,-13.74304 17.85926,13.64432 3.46272,40.17263 9.67296,59.67018 3.30616,62.1258 5.39074,124.32065 9.80666,186.38427 -28.90449,14.63476 -18.63812,-32.09994 -21.78623,-47.97948 -1.29081,-38.08375 -6.39395,-75.97111 -6.43718,-114.10794 -30.14828,-10.38361 -24.45286,27.36313 -23.43881,45.11899 -0.15019,40.13917 2.11769,80.34154 -0.86129,120.42841 -3.94171,0.56467 -7.79488,2.18902 -11.84677,1.635 z m -4.07651,-13.6362 -0.37421,0.0673 z m 14.87651,-0.49994 h -0.28743 z m 38.37349,-8.59993 c -0.57419,-1.07284 -0.71298,1.33629 0,0 z m -52.77349,-2.13392 c -0.5407,-0.82397 -0.13428,1.11156 0,0 z m 8.51562,-0.0943 -0.37999,0.0135 z m 57.63438,-8.29688 h -0.27892 z m -12.15,-0.375 h -0.28743 z m -49.35,-5.475 h -0.27892 z m 47.37294,-8.95075 c -0.81428,-1.3356 -0.30645,1.17672 0,0 z m -42.94794,-4.03469 c -0.45576,-1.04463 -0.5779,1.24152 0,0 z m -7.85943,-4.98399 -0.15388,0.23904 z m 44.38443,-21.40557 h -0.28743 z m 4.43343,-7.31656 -0.34854,0.39037 z m -49.73343,-10.98344 h -0.28743 z m 4.26859,-9.43963 -0.36386,-0.12229 z m 44.90265,-5.57162 h -0.37992 z m -6.64624,-2.23875 c -0.43404,-1.02208 -0.43404,1.02208 0,0 z m 14.475,-6.36615 -0.29328,-0.086 z m -56.25,-18.74049 c -0.18224,-1.54376 -1.05161,0.90201 0,0 z m 2.55,-9.54336 -0.20669,-0.005 z m -1.35,-4.13385 -0.21523,-0.0136 z m 0.75,-1.71615 h -0.28743 z m 45.06663,-5.08647 c 0.43013,-1.81767 -1.56339,0.72304 0,0 z m -47.46663,-0.68853 c -0.4928,-0.95293 -0.68806,1.1622 0,0 z m -0.6,-11.325 c -0.34593,-1.10007 -0.34593,1.10007 0,0 z m 37.69162,-7.17288 c -5.41152,-20.31128 9.16427,-55.85873 -11.9415,-66.04396 -22.20617,10.90329 -2.66587,42.13984 -9.25245,61.56283 3.50734,8.02454 14.54024,3.00534 21.19395,4.48113 z m -22.54162,-7.89326 c -0.39407,-1.29751 -0.87664,0.9964 0,0 z m -6.32876,-16.4451 h -0.37992 z m -61.63374,201.68447 c -29.67484,-4.42533 -31.94251,-41.39758 -33.20352,-65.23558 -1.88453,-52.40429 -3.08722,-105.17244 2.24937,-157.38996 -1.60726,-21.87605 29.37404,-40.59446 43.66247,-20.83055 -7.3591,5.73594 -27.46045,7.90033 -24.84044,26.15594 0.30038,58.89439 -2.84997,117.99959 0.75735,176.88215 -1.1247,11.50005 16.83818,38.71849 17.34332,13.13349 4.97656,-46.54172 3.48195,-93.49253 0.042,-140.08528 -33.19753,-9.18434 33.78025,-21.30766 20.47361,5.11438 2.21358,49.11208 4.54474,99.05136 -5.15157,147.51886 -2.59825,9.47308 -11.49862,15.88373 -21.33259,14.73655 z m 12.01249,-3.3732 -0.2067,0.005 z m 2.48625,-1.31374 -0.26463,0.41997 z m 7.86888,-23.44584 c 0.60297,-2.29056 -1.6957,0.87915 0,0 z m -46.43013,-4.05086 c -0.45574,-1.04464 -0.57789,1.24149 0,0 z m 0.675,-5.00571 -0.29329,-0.0861 z m -3.975,-7.73385 -0.2067,-0.005 z m -3.45,-3.6 -0.29079,0.2808 z m 4.725,-3.975 -0.3065,-0.0222 z m 3.45,-0.81615 c -0.56571,-1.51239 -0.59474,1.17472 0,0 z M 179.3283,304.884 c -0.50165,-1.22904 -0.83358,1.52113 0,0 z m 4.20056,-0.12218 c -0.6059,-2.14498 -1.12618,1.0174 0,0 z m -5.2985,-6.47857 -0.30855,0.14674 z m -4.875,-9.47501 h -0.28743 z m 56.85,-10.275 -0.30651,-0.0222 z m -9.20937,-5.58438 -0.0835,0.29476 z m -48.09063,-11.13177 -0.37761,-0.15933 z m 42.525,-29.25885 -0.2067,-0.005 z m 4.275,-9.675 h -0.27892 z m -4.49244,-1.125 c 0.19844,-1.39488 -1.64399,0.9516 0,0 z m 4.19244,-2.4 h -0.43911 z m -4.95,-2.175 h -0.27892 z m -34.35,-4.875 h -0.28743 z m 40.2225,-0.225 -0.30497,1e-5 z m 0.4275,-7.65 h -0.27892 z m -41.52,-9.255 -0.0636,0.3259 z m 14.82,-8.75385 -0.28146,0.0792 z m 113.55001,175.13385 h 0.28743 z m 41.80578,-1.44421 c -23.82812,-8.46287 -5.28408,-39.95239 -12.12273,-58.48724 -2.04349,-61.18514 -4.35642,-122.36494 -5.52889,-183.57512 13.63396,-18.397338 44.48367,-3.53748 58.64033,8.71093 19.06191,21.4765 5.49996,64.25338 -25.42998,64.06002 -22.1319,10.58159 -3.18864,41.54282 -8.38161,60.80789 0.88834,35.51039 0.7518,71.04137 1.98671,106.54391 -2.33121,3.01959 -6.21401,0.58006 -9.16383,1.93961 z m -5.95578,-7.18079 -0.30651,-0.0222 z m 14.25,-15.525 h -0.28743 z m -15.15,-8.175 h -0.27892 z m 1.49454,-10.04343 c 0.27817,-1.58117 -1.45783,0.6868 0,0 z m -1.88219,-2.2777 c 1.15765,-1.90341 -1.50613,-0.11026 0,0 z m 2.03765,-8.91636 -0.36658,0.18954 z m -1.31076,-3.02501 c 0.71721,-2.49713 -1.7321,0.61827 0,0 z m -1.13678,-12.29062 -0.0276,0.27095 z m 0.15582,-10.94016 c 0.29081,-1.7848 -1.57813,0.94321 0,0 z m 0.49172,-11.61557 -0.21523,-0.0136 z m -1.5,-14.76615 h -0.28743 z m 10.96728,-0.3375 c 0.77524,-2.19567 -1.71078,-0.25215 0,0 z m -12.49217,-16.90345 c -0.67637,-1.04974 -0.21286,1.53501 0,0 z m 1.04489,-6.93905 c -0.71031,-2.04638 -2.81194,1.72611 0,0 z m -1.00313,-3.76312 0.0111,0.28838 z m 0.60627,-6.74373 -0.34407,0.21795 z m -0.47314,-16.097 -0.28146,0.0792 z m 14.80494,-25.10351 c 23.23461,-4.40759 36.02528,-41.39029 14.45804,-55.27379 -26.8081,-9.35703 -14.2734,23.44714 -16.26027,38.17968 0.10835,5.73293 0.51831,11.4919 1.80223,17.09411 z m 29.50956,-19.34564 c -0.003,-1.00812 -0.96496,0.77192 0,0 z m -2.3895,-1.59405 c -0.66996,-1.17962 -0.47591,1.351 0,0 z m 17.475,-2.08909 c -0.32724,-1.59809 -0.63575,0.75738 0,0 z m -0.75,-12.0177 -0.21523,-0.0136 z m 74.175,208.76468 c -24.70466,8.63397 -39.80031,-39.2876 -57.21736,-12.68141 -12.44637,7.94854 -37.11726,13.80443 -46.71786,5.0976 18.46855,-4.19942 44.1121,1.63618 53.61589,-20.33414 12.71043,-15.16572 15.8903,21.56633 32.96756,18.2586 7.18957,2.83868 47.061,6.13819 17.35177,9.65935 z m -93.375,-8.64699 -0.29329,-0.0861 z m 41.37187,-8.17447 -0.36233,0.10895 z m 4.07813,-14.40938 -0.2067,0.005 z m -346.62075,27.75 c -16.708583,3.17892 -26.663881,-31.66041 -38.94923,-7.17792 -10.871287,4.77577 -29.534931,14.02027 -38.23721,2.57484 21.021418,9.00294 47.065666,-21.14969 50.277958,-23.08295 3.030289,21.14703 39.039663,21.77239 44.899134,26.5655 -5.921164,1.12822 -11.979431,1.33593 -17.990652,1.12053 z m -58.07926,-3.225 c -0.436692,-1.43279 -0.793246,1.52194 0,0 z m 366.19196,-93.36276 c -24.28163,-5.22002 -23.57702,-42.6165 -11.23529,-58.21349 21.34268,-8.50803 29.32024,39.18243 3.83398,33.7273 -20.81266,2.34717 9.49852,34.92934 17.05371,13.18763 2.37084,5.72059 -3.93313,11.95049 -9.6524,11.29856 z m -7.99195,-4.58724 h -0.43115 z m -7.07706,-16.83903 c -0.53516,-1.26196 -0.95306,1.58504 0,0 z m 4.15731,-7.56211 c 32.17359,7.62125 0.46644,-50.93038 -3.34928,-13.35499 0.45115,3.92051 -5.04129,15.26411 3.34928,13.35499 z m 13.71975,-24.11501 -0.28146,-0.0792 z m 1.01562,-0.037 -0.37999,0.0135 z m 12.70938,51.57273 c -5.85269,-6.46186 8.49802,-0.1397 0,0 z m 18.3625,-0.30374 c -11.04961,-15.59336 -17.58705,-41.45533 -18.68056,-56.4777 9.35588,11.29152 8.29505,45.97791 20.36247,44.84091 5.50869,-11.96513 11.02831,-43.47155 16.60854,-42.15047 -2.94055,18.86454 -11.80064,36.02551 -18.29045,53.78726 z m 2.82188,-14.7315 -0.27529,0.009 z m 1.69062,-3.65937 h -0.28743 z m -14.775,-4.8 h -0.28743 z m -0.53996,-1.3875 c 0.58895,-1.85974 -0.90609,0.29492 0,0 z m -277.56005,22.23753 c -0.0965,-1.37321 0.72086,0.61132 0,0 z m 301.87501,-0.21076 c -4.92466,-5.38969 7.04635,-0.18675 0,0 z m -34.33817,-51.77673 0.10626,0.0928 z M 86.58036,189.54876 C 52.55331,197.54966 59.3826,151.17236 54.636794,130.54827 49.995748,112.10407 13.877623,77.157819 48.910682,70.672368 103.93212,52.725395 159.83464,37.591675 215.38994,21.504663 233.33855,9.3481621 258.82938,-13.449903 277.52868,11.05169 c 18.28128,16.96172 44.43121,16.045862 67.00012,22.979735 46.36509,9.916429 92.3923,21.467846 137.75589,35.336811 11.91855,22.080992 -18.12122,36.285734 -22.72947,55.881444 -11.1865,19.92382 -1.56704,60.46064 -32.17032,62.28121 -10.34222,2.63918 -46.73148,-3.0585 -19.36468,-4.77546 19.47258,4.96492 40.3929,-2.14533 38.93157,-25.5703 4.68223,-18.57993 22.75149,-51.88059 -9.04577,-51.65006 C 386.96884,90.832137 335.98137,76.236237 284.47867,63.62115 266.8984,69.055499 252.1939,45.72263 252.30773,39.954552 c -6.36032,19.452702 -24.30369,28.389859 -43.42512,29.25926 -49.5655,13.083099 -97.94374,30.297054 -145.906031,48.268608 -15.58246,18.43475 5.228612,45.20412 3.140158,66.4496 5.518944,5.28056 18.145926,-3.98852 20.463623,5.61674 z m 341.32501,-5.13167 -0.28146,-0.0792 z m 14.1225,-4.58384 -0.30497,-1e-5 z m 1.4025,-3.525 -0.36042,-0.007 z m -381.75001,-0.75 -0.2067,-0.005 z m 387.82501,-11.16615 -0.29328,-0.086 z M 54.66165,116.57861 C 110.96377,95.596796 167.75893,75.1581 226.24967,61.184417 241.41946,67.198605 254.28022,22.463251 238.57513,49.738657 216.5454,67.137426 186.02849,65.075631 160.80249,75.784022 123.49723,86.72833 87.402846,101.38582 50.08538,112.29158 c 1.391565,0.91848 1.719191,5.61514 4.57627,4.28703 z m 412.36372,-6.60036 C 452.37553,90.638685 421.34851,98.402546 401.18789,86.314492 356.62049,73.334545 310.82743,64.945884 266.54478,50.93885 c -13.21818,-18.494349 -5.25556,13.603514 9.33588,7.294104 64.34559,14.774349 127.46572,34.417855 191.14471,51.745296 z M 46.59542,109.24496 C 102.25681,92.767807 155.96524,69.556137 213.03972,58.055274 229.37785,56.641879 248.85103,34.094256 249.12055,27.34428 236.61362,56.111788 201.0688,55.624359 175.49342,64.46064 131.74285,77.377477 88.374017,92.364115 44.991401,105.93638 c -0.549174,1.29516 0.252585,2.9304 1.604019,3.30858 z m 33.30994,-6.28671 h -0.43911 z m -33.98898,-1.19373 c 58.84265,-18.052498 117.00435,-38.491386 176.5867,-53.975057 9.3854,0.360527 23.1933,-20.295722 6.47878,-8.24849 -23.91088,11.082053 -50.39804,14.794847 -75.00892,24.009459 -35.2352,10.138794 -70.140405,21.604733 -105.076627,32.503699 -1.313961,0.919192 -9.161269,5.090739 -2.979933,5.710389 z m 424.59269,-0.91148 C 446.13752,86.416994 416.48051,87.511833 390.64238,76.821834 351.23186,65.620652 311.06419,57.201023 271.93501,44.990583 c -6.26277,-4.879977 -19.62213,-25.273142 -9.64238,-5.929992 12.38356,18.342293 38.46403,14.212697 56.86637,22.43044 51.09405,10.579367 100.58816,27.398029 151.35007,39.362009 z m 5.06127,-6.332287 C 455.83767,83.409062 432.02343,83.919169 411.04092,75.884897 367.55916,64.873233 324.31655,51.665986 280.76661,41.778511 c -5.97457,-2.823536 -25.10204,-22.497587 -12.96509,-6.021516 22.60745,18.298153 54.64262,15.959373 81.04651,26.295678 42.16556,11.099992 83.90664,23.999224 126.72231,32.46808 z m -71.21497,-1.52865 -0.29328,-0.08602 z m -287.25001,-6.075 -0.37761,-0.159339 z m 331.16563,-2.980727 -0.38,-0.01357 z m -280.95001,-4.556251 -0.37999,0.01357 z m 162.48439,-4.538022 -0.29328,-0.08601 z m -165.45001,-3.683853 -0.36042,-0.0067 z m 151.05001,-0.15 -0.36042,0.0067 z m -100.80001,-6.308853 -0.34854,0.09226 z m 3.1125,-0.178647 h -0.51108 z m 85.76317,-3.263559 -0.3967,-0.09654 z m -101.02567,-0.515089 -0.29328,-0.08601 z m 64.01728,-1.87075 -0.69784,0.291842 z m 30.48273,0.136898 h -0.28743 z m 1.95,-1.725 -0.30651,-0.02224 z m 103.92358,-4.775383 c -0.55508,-1.568217 -0.93963,1.146905 0,0 z m -5.37358,-1.456812 c -0.64317,-1.768083 -1.04233,1.565286 0,0 z m -102,-10.267804 c -0.65728,-1.430241 -0.86786,1.273195 0,0 z m 27.375,-5.627055 -0.44962,0.13906 z M 121.95396,363.55282 C 99.45049,361.29605 97.36207,335.14738 95.15106,317.52324 93.48502,263.53579 86.72712,209.44889 91.5122,155.4439 c -1.16476,-20.97943 9.09557,-46.45084 34.23419,-41.53948 17.3951,-5.44921 29.11064,28.61635 6.63178,15.39663 -19.28176,-13.49143 -23.27269,25.2181 -20.6953,39.48121 -0.4066,51.39705 0.44857,102.90853 3.76345,154.16373 -2.33175,18.25841 19.55003,42.29267 16.64737,10.79294 2.18196,-47.47305 -1.35736,-95.46927 1.71978,-142.85908 -5.06865,-4.87719 -20.65927,-11.79929 -4.38355,-14.57819 18.18274,-2.06482 27.57469,6.94515 23.73101,24.92221 -0.37557,47.81194 2.69462,96.09156 -3.59449,143.63436 -3.26466,12.4708 -14.60288,20.9766 -27.61248,18.69459 z m -5.19838,-17.0812 c -0.0459,-1.55218 -1.41107,0.9235 0,0 z m 21.94978,-11.76338 h -0.28743 z m -5.4,-87.36615 c -0.72533,-1.75154 -0.24951,1.85241 0,0 z m 130.20001,115.75772 c -19.55708,-6.63321 -5.85015,-35.57661 -9.38209,-52.16085 1.14472,-54.89571 0.43055,-109.76711 -0.39627,-164.65832 0.11744,-17.93092 -4.60614,-44.87635 21.79133,-38.33299 15.44778,2.44541 43.8913,-7.19136 40.40217,18.52396 3.203,76.88525 6.94755,153.91996 11.38497,230.68315 -15.23991,15.59613 -25.11073,-5.20192 -19.81615,-20.11366 -3.76414,-36.47428 -3.58105,-73.62287 -7.82641,-110.21548 6.12145,-17.07282 -5.02725,-46.69581 -23.74532,-26.14395 0.14663,19.89289 0.93951,39.76283 0.0389,59.84875 0.0242,33.07562 1.8461,66.69703 -0.46839,99.42566 -2.65504,3.67946 -8.05664,2.95068 -11.98276,3.14373 z m 33.38637,-178.99589 c -2.81408,-20.7568 4.22836,-52.50222 -7.18551,-66.1645 -27.24147,-1.51696 -8.51056,34.25262 -13.27722,50.83784 -3.29478,19.70035 5.5245,14.22556 20.46273,15.32666 z m -90.36707,177.49386 c -23.10744,-1.72843 -29.47112,-28.78527 -31.88901,-47.75432 -4.60016,-45.4032 -2.13138,-91.19215 -2.23976,-136.75631 1.33756,-19.79024 0.39721,-41.39301 10.58544,-59.03713 7.33589,-11.44362 41.93804,-10.57737 35.34625,3.96636 -24.80769,-7.26716 -24.39618,26.8696 -24.30199,43.48576 0.90809,40.25297 -1.06385,80.54301 -0.0407,120.83422 0.0921,21.43623 -0.60771,45.88271 14.62122,62.92181 7.27724,-22.58505 5.83064,-47.31778 7.10992,-70.90476 0.24885,-28.53768 -1.48728,-57.04121 -3.29632,-85.50774 -22.52111,1.26537 -6.9571,-13.55193 7.0509,-10.2384 26.32098,2.56922 9.45096,40.04391 15.52604,58.08715 0.20599,35.95151 0.60563,72.57186 -7.33012,107.78615 -2.34296,10.17146 -12.16766,12.90783 -21.14186,13.11721 z m 22.43032,-28.32462 c -0.47978,-1.6608 -0.61519,0.96304 0,0 z m 120.40124,27.07595 c -23.2424,-4.36024 -5.52077,-38.49117 -12.02281,-55.16708 -2.26677,-63.2884 -4.63025,-126.58482 -5.72438,-189.88919 15.06387,-12.36952 56.93123,-1.9984 65.24344,21.94784 8.53558,22.13389 -4.56846,51.817 -29.85451,54.20671 -23.91677,2.06542 -5.93768,37.76259 -10.36411,55.41574 1.00285,37.08603 1.07064,74.17661 2.21723,111.25624 -2.31322,3.22 -6.43834,0.875 -9.49486,2.22974 z m 6.09914,-181.22356 c 19.9386,-5.20831 31.94627,-33.76313 18.77628,-50.23099 -11.46397,-12.93754 -29.19478,-6.4661 -21.71742,11.06103 2.37,12.57326 -3.18936,27.87124 2.94114,39.16996 z m 115.725,174.08381 c -17.77406,0.26276 -33.97802,-10.28431 -42.69392,-25.27864 -13.06099,19.54163 -40.33358,24.54198 -62.72677,20.52017 8.59009,-10.57621 35.89587,0.066 48.86623,-13.24026 6.42363,-5.78873 12.52985,-27.49724 18.37942,-8.67732 8.55446,21.35538 40.90625,16.18834 50.46553,25.16155 -3.82653,1.73355 -8.21108,1.40548 -12.29049,1.5145 z M 79.04286,350.04012 C 60.07508,354.72865 52.46728,317.27577 42.4983,340.26942 32.17479,348.71673 7.11096,354.23261 0,346.01357 c 20.58093,-1.60253 43.78279,-5.97526 49.37508,-28.25234 4.93887,24.00278 30.46165,25.50229 48.16082,29.89545 -5.80153,2.07382 -12.3959,2.13047 -18.49304,2.38344 z m -59.4375,-3.55688 h -0.27893 z m 366.45001,-92.92387 c -24.9913,-4.6801 -26.05658,-48.74896 -7.80253,-60.37142 20.3133,-1.27675 23.88916,44.76763 -1.81094,34.73703 -15.88562,8.17144 12.59262,32.31994 19.35664,14.88384 1.65559,5.33234 -4.67564,10.9662 -9.74317,10.75055 z m -15.3,-21.90998 -0.28146,0.0792 z m 2.85,-7.49037 c 27.43859,12.01548 13.03705,-47.89081 -1.36716,-19.33092 1.56864,5.30403 -5.54005,16.85154 1.36716,19.33092 z m 29.1888,27.82422 c -7.77792,-6.69558 9.60254,-2.86042 0,0 z m 17.16765,-0.36294 c -10.89838,-12.35069 -10.2697,-32.07496 -17.61489,-47.0655 -6.01286,-11.62667 -0.19106,-15.95624 3.85535,-2.00868 4.60407,10.77423 8.70552,39.52871 14.71471,38.79168 7.25957,-14.08316 11.25795,-40.84312 18.76319,-47.6099 -2.38033,19.24811 -11.46338,41.30763 -19.71836,57.8924 z m 13.9885,-2.74956 c -5.2178,-9.25016 9.93344,1.02263 0,0 z M 85.90536,189.54706 C 54.15316,198.20862 60.63885,160.95589 55.34214,141.65105 56.02054,117.34853 33.30747,102.40886 31.76996,79.077444 48.91617,66.779922 74.68947,63.73276 95.62211,55.949099 137.34476,42.509193 180.18843,32.789483 221.79382,19.106148 233.94715,3.8396046 258.06691,-8.3825063 275.69753,7.3088571 c 11.78555,20.3060779 39.55159,16.4304699 59.15399,24.4240339 49.76609,10.713096 99.50228,22.347337 147.97917,37.862831 9.67294,16.779326 -10.75873,35.441078 -21.06358,47.180358 -6.80406,22.39599 -9.98139,46.46461 -18.86168,68.47391 -15.45138,1.84081 -35.07464,5.04158 -48.24063,-0.11883 19.07123,-7.13971 52.38227,8.57593 51.46927,-23.97297 1.33648,-16.15447 14.52908,-38.29951 9.79647,-50.19575 C 394.07961,93.793435 332.74412,74.288191 269.91206,60.952521 250.4499,65.513967 257.66623,17.907583 247.52761,47.934214 238.42644,73.173852 203.02404,65.389388 182.52306,76.767669 139.87186,89.45084 97.9316,104.56471 56.19155,119.98758 c 6.26495,20.06433 1.2441,54.58941 16.46136,65.24459 1.4436,0.38583 22.40951,-0.6654 13.25245,4.31489 z M 54.68432,116.38325 C 107.16866,96.742039 160.1196,77.780818 214.42216,63.836878 c 15.49725,2.664637 35.83108,-17.529535 30.78321,-22.9607 -6.8473,19.193539 -28.71505,18.384101 -44.90137,24.152037 -44.84952,10.926527 -87.97498,27.384391 -131.80393,41.606085 -3.38561,2.69941 -27.55031,4.09821 -13.81575,9.74895 z m 412.47111,-7.04006 C 456.74671,95.385668 427.88641,97.69063 410.5392,89.453817 362.83926,74.441059 313.26898,66.327381 265.78079,50.67904 253.00201,35.056104 263.10022,63.808708 275.54015,58.123467 339.8678,72.574291 403.01617,92.13091 466.42054,109.87195 Z M 46.48302,109.18245 c 53.68083,-16.410368 105.8848,-37.520478 160.57262,-50.561114 20.84239,-1.434304 35.19447,-14.907146 42.79562,-33.740625 -9.17185,23.579731 -30.9609,29.271731 -53.7043,34.00324 -47.44141,12.792872 -93.66532,29.563292 -140.691,43.612099 -2.21238,0.90292 -15.6057,2.18362 -8.97294,6.6864 z m -0.71653,-7.49943 C 98.33991,85.913045 149.9951,66.981019 203.20536,53.162519 c 11.77277,-4.497413 33.91724,-5.493854 34.5717,-18.897682 -14.05918,12.239256 -35.1249,13.099813 -52.30743,20.056335 -38.05504,11.460276 -76.1301,22.698439 -114.02816,34.638831 -4.51324,3.89189 -35.56948,6.611552 -25.67498,12.723017 z m 424.82153,-1.19495 C 451.35415,88.902606 422.8821,88.697492 400.61975,79.852661 358.27596,67.594315 315.06951,58.294747 272.88715,45.606598 c -7.30804,-3.700406 -19.82334,-25.468772 -9.71547,-4.869959 15.56848,16.96163 43.63732,14.21419 64.39556,22.51973 19.526,3.837988 38.35768,9.195649 57.72208,14.557588 28.3442,7.756795 56.73152,16.320142 85.2987,22.674113 z m 4.56357,-5.929818 C 458.20323,84.540111 434.27594,84.244041 414.6802,77.021967 368.45802,65.039527 322.3612,52.055994 276.23164,40.137839 c -6.3506,-4.589997 -19.62116,-21.477877 -8.19283,-4.888116 20.12055,18.260249 52.91325,15.8415 77.93782,26.209514 43.22774,10.364381 85.58034,24.241174 129.17496,33.099015 z m -403.64623,-6.750003 -0.20681,0.0053 z M 266.28037,59.00825 c -0.44953,-0.976194 -0.44954,0.976194 0,0 z m 136.425,-6.516148 -0.29328,-0.08602 z m -5.4,-1.508853 h -0.43114 z m -102.08292,-10.28781 -0.27229,0.168265 z"
     inkscape:connector-curvature="0" />
</svg>
